<svg width="26" height="26" viewBox="0 0 26 26" fill="none" xmlns="http://www.w3.org/2000/svg">
<g clip-path="url(#clip0_1825_9285)">
<path d="M20.4967 5.08832C20.28 4.42918 19.6733 3.95996 18.9583 3.95996H7.04167C6.32667 3.95996 5.73083 4.42918 5.50333 5.08832L3.25 11.7803V20.7178C3.25 21.3322 3.7375 21.835 4.33333 21.835H5.41667C6.0125 21.835 6.5 21.3322 6.5 20.7178V19.6006H19.5V20.7178C19.5 21.3322 19.9875 21.835 20.5833 21.835H21.6667C22.2625 21.835 22.75 21.3322 22.75 20.7178V11.7803L20.4967 5.08832ZM7.04167 16.249C6.1425 16.249 5.41667 15.5005 5.41667 14.5732C5.41667 13.646 6.1425 12.8975 7.04167 12.8975C7.94083 12.8975 8.66667 13.646 8.66667 14.5732C8.66667 15.5005 7.94083 16.249 7.04167 16.249ZM18.9583 16.249C18.0592 16.249 17.3333 15.5005 17.3333 14.5732C17.3333 13.646 18.0592 12.8975 18.9583 12.8975C19.8575 12.8975 20.5833 13.646 20.5833 14.5732C20.5833 15.5005 19.8575 16.249 18.9583 16.249ZM5.41667 10.6631L7.04167 5.63574H18.9583L20.5833 10.6631H5.41667Z" fill="#D01818"/>
</g>
<defs>
<clipPath id="clip0_1825_9285">
<rect width="26" height="26" fill="white"/>
</clipPath>
</defs>
</svg>
