<svg width="18" height="18" viewBox="0 0 18 18" fill="none" xmlns="http://www.w3.org/2000/svg">
<g clip-path="url(#clip0_1825_9341)">
<path d="M12.42 6.705L5.715 0L4.6575 1.0575L6.4425 2.8425L2.58 6.705C2.1375 7.1475 2.1375 7.86 2.58 8.295L6.705 12.42C6.9225 12.6375 7.215 12.75 7.5 12.75C7.785 12.75 8.0775 12.6375 8.295 12.42L12.42 8.295C12.8625 7.86 12.8625 7.1475 12.42 6.705ZM3.9075 7.5L7.5 3.9075L11.0925 7.5H3.9075ZM14.25 8.625C14.25 8.625 12.75 10.2525 12.75 11.25C12.75 12.075 13.425 12.75 14.25 12.75C15.075 12.75 15.75 12.075 15.75 11.25C15.75 10.2525 14.25 8.625 14.25 8.625ZM1.5 15H16.5V18H1.5V15Z" fill="#D01818"/>
</g>
<defs>
<clipPath id="clip0_1825_9341">
<rect width="18" height="18" fill="white"/>
</clipPath>
</defs>
</svg>
