<svg width="24" height="24" viewBox="0 0 24 24" fill="none" xmlns="http://www.w3.org/2000/svg">
<path d="M22.4 2.38C22.4 1.054 21.346 0 20.02 0C18.694 0 17.64 1.054 17.64 2.38C17.64 3.468 18.354 4.352 19.34 4.658V8.84H12.88V4.658C13.866 4.352 14.58 3.468 14.58 2.38C14.58 1.054 13.526 0 12.2 0C10.874 0 9.82 1.054 9.82 2.38C9.82 3.468 10.534 4.352 11.52 4.658V8.84H5.06V4.658C6.046 4.352 6.76 3.468 6.76 2.38C6.76 1.054 5.706 0 4.38 0C3.054 0 2 1.054 2 2.38C2 3.468 2.714 4.352 3.7 4.658V14.382C2.714 14.688 2 15.572 2 16.66C2 17.986 3.054 19.04 4.38 19.04C5.706 19.04 6.76 17.986 6.76 16.66C6.76 15.572 6.046 14.688 5.06 14.382V10.2H11.52V14.382C10.534 14.688 9.82 15.572 9.82 16.66C9.82 17.986 10.874 19.04 12.2 19.04C13.526 19.04 14.58 17.986 14.58 16.66C14.58 15.572 13.866 14.688 12.88 14.382V10.2H20.02C20.394 10.2 20.7 9.894 20.7 9.52V4.658C21.686 4.386 22.4 3.468 22.4 2.38ZM11.18 2.38C11.18 1.836 11.622 1.36 12.2 1.36C12.744 1.36 13.22 1.802 13.22 2.38C13.22 2.924 12.778 3.4 12.2 3.4C11.656 3.4 11.18 2.958 11.18 2.38ZM3.36 2.38C3.36 1.836 3.802 1.36 4.38 1.36C4.924 1.36 5.4 1.802 5.4 2.38C5.4 2.924 4.958 3.4 4.38 3.4C3.802 3.4 3.36 2.958 3.36 2.38ZM5.4 16.66C5.4 17.204 4.958 17.68 4.38 17.68C3.836 17.68 3.36 17.238 3.36 16.66C3.36 16.082 3.802 15.64 4.38 15.64C4.924 15.64 5.4 16.082 5.4 16.66ZM13.22 16.66C13.22 17.204 12.778 17.68 12.2 17.68C11.656 17.68 11.18 17.238 11.18 16.66C11.18 16.082 11.622 15.64 12.2 15.64C12.744 15.64 13.22 16.082 13.22 16.66ZM20.02 3.4C19.476 3.4 19 2.958 19 2.38C19 1.836 19.442 1.36 20.02 1.36C20.598 1.36 21.04 1.802 21.04 2.38C21.04 2.958 20.598 3.4 20.02 3.4Z" fill="#D01818"/>
</svg>
