<svg width="24" height="24" viewBox="0 0 24 24" fill="none" xmlns="http://www.w3.org/2000/svg">
<path d="M20.3979 6.06365C20.0794 5.74513 19.5794 5.69816 19.207 5.9519C17.8042 6.90806 10.7681 11.7161 10.0119 12.4722C8.9153 13.5689 8.9153 15.3531 10.0119 16.4497C10.5602 16.998 11.2805 17.2722 12.0007 17.2722C12.7209 17.2722 13.4411 16.998 13.9894 16.4497C14.7456 15.6936 19.5535 8.65743 20.5097 7.25465C20.7634 6.88232 20.7165 6.38226 20.3979 6.06365ZM12.6635 15.1239C12.298 15.4895 11.7032 15.4895 11.3378 15.1239C10.9722 14.7584 10.9722 14.1638 11.3376 13.7983C11.6314 13.5079 13.6291 12.0832 16.0869 10.3747C14.3785 12.8326 12.9538 14.8302 12.6635 15.1239Z" fill="#D01818"/>
<path d="M4.32333 18.8214L3.16598 19.386C2.31914 17.8747 1.875 16.1878 1.875 14.4609C1.875 13.1957 2.1083 11.984 2.53406 10.8664L3.8602 11.5025C3.99098 11.5652 4.12903 11.595 4.26501 11.595C4.61437 11.595 4.94976 11.3988 5.11097 11.0627C5.33484 10.5959 5.13797 10.0358 4.67109 9.81192L3.36178 9.18389C4.98914 6.52983 7.80478 4.67944 11.0625 4.37897V5.78902C11.0625 6.3068 11.4823 6.72652 12 6.72652C12.5178 6.72652 12.9375 6.3068 12.9375 5.78902V4.37827C14.0545 4.47994 15.1352 4.76437 16.1612 5.2275C16.633 5.44055 17.1883 5.23059 17.4014 4.7588C17.6144 4.28686 17.4045 3.73162 16.9326 3.51858C15.3779 2.81681 13.7184 2.46094 12 2.46094C8.79469 2.46094 5.78123 3.70912 3.51469 5.97562C1.24823 8.24217 0 11.2556 0 14.4609C0 16.8295 0.703031 19.1332 2.03311 21.1226C2.21227 21.3905 2.50847 21.5391 2.81306 21.5391C2.95153 21.5391 3.09178 21.5084 3.22355 21.4441L5.14542 20.5066C5.6108 20.2796 5.80401 19.7184 5.577 19.253C5.34998 18.7877 4.7887 18.5945 4.32333 18.8214Z" fill="#D01818"/>
<path d="M22.9426 9.52861C22.7296 9.05672 22.1744 8.84672 21.7024 9.05987C21.2305 9.27291 21.0206 9.82815 21.2336 10.3C21.8253 11.6106 22.1253 13.0106 22.1253 14.4612C22.1253 16.1906 21.6797 17.8802 20.8303 19.3933L19.622 18.8179C19.1546 18.5953 18.5952 18.7937 18.3725 19.2613C18.1499 19.7287 18.3484 20.2882 18.8159 20.5108L20.7847 21.4483C20.9142 21.5099 21.0515 21.5394 21.1872 21.5394C21.4919 21.5394 21.7882 21.3906 21.9671 21.1229C23.2972 19.1334 24.0003 16.8298 24.0003 14.4612C24.0003 12.7428 23.6444 11.0832 22.9426 9.52861Z" fill="#D01818"/>
</svg>
