<svg width="24" height="24" viewBox="0 0 24 24" fill="none" xmlns="http://www.w3.org/2000/svg">
<path d="M5.5 6V11H17.6103L14.5675 6H5.5Z" fill="#D01818"/>
<path d="M21.4238 11.2353L16.4238 3.23535C16.3791 3.16328 16.3166 3.10383 16.2425 3.06264C16.1683 3.02145 16.0848 2.99989 16 3H3C2.93433 2.99996 2.86929 3.01287 2.80861 3.03798C2.74793 3.06309 2.6928 3.09992 2.64636 3.14636C2.59992 3.1928 2.56309 3.24793 2.53798 3.30861C2.51287 3.36929 2.49996 3.43433 2.5 3.5V18H21.5V11.5C21.5001 11.4064 21.4736 11.3146 21.4238 11.2353ZM7 15H5C4.86739 15 4.74021 14.9473 4.64645 14.8536C4.55268 14.7598 4.5 14.6326 4.5 14.5C4.5 14.3674 4.55268 14.2402 4.64645 14.1464C4.74021 14.0527 4.86739 14 5 14H7C7.13261 14 7.25979 14.0527 7.35355 14.1464C7.44732 14.2402 7.5 14.3674 7.5 14.5C7.5 14.6326 7.44732 14.7598 7.35355 14.8536C7.25979 14.9473 7.13261 15 7 15ZM18.9356 11.7451C18.8921 11.8225 18.8289 11.8869 18.7524 11.9316C18.6758 11.9764 18.5887 12 18.5 12H5C4.93433 12 4.86929 11.9871 4.80861 11.962C4.74793 11.9369 4.6928 11.9001 4.64636 11.8536C4.59992 11.8072 4.56309 11.7521 4.53798 11.6914C4.51287 11.6307 4.49996 11.5657 4.5 11.5V5.5C4.49996 5.43433 4.51287 5.36929 4.53798 5.30861C4.56309 5.24793 4.59992 5.1928 4.64636 5.14636C4.6928 5.09992 4.74793 5.06309 4.80861 5.03798C4.86929 5.01287 4.93433 4.99996 5 5H14.8486C14.9344 4.99994 15.0188 5.02202 15.0935 5.0641C15.1683 5.10619 15.2309 5.16685 15.2754 5.24023L18.9268 11.2402C18.9732 11.3159 18.9985 11.4027 19 11.4915C19.0015 11.5803 18.9793 11.6678 18.9356 11.7451Z" fill="#D01818"/>
<path d="M2.5 20.5C2.49996 20.5657 2.51287 20.6307 2.53798 20.6914C2.56309 20.7521 2.59992 20.8072 2.64636 20.8536C2.6928 20.9001 2.74793 20.9369 2.80861 20.962C2.86929 20.9871 2.93433 21 3 21H21C21.0657 21 21.1307 20.9871 21.1914 20.962C21.2521 20.9369 21.3072 20.9001 21.3536 20.8536C21.4001 20.8072 21.4369 20.7521 21.462 20.6914C21.4871 20.6307 21.5 20.5657 21.5 20.5V19H2.5V20.5Z" fill="#D01818"/>
</svg>
