<svg width="19" height="19" viewBox="0 0 19 19" fill="none" xmlns="http://www.w3.org/2000/svg">
<g clip-path="url(#clip0_1825_9386)">
<path d="M17.0208 7.12533H16.625V6.72949C16.625 5.63858 15.7368 4.75033 14.6458 4.75033H12.6667V2.37533H15.0417C15.4787 2.37533 15.8333 2.02066 15.8333 1.58366C15.8333 1.14666 15.4787 0.791992 15.0417 0.791992H8.70833C8.27133 0.791992 7.91667 1.14666 7.91667 1.58366C7.91667 2.02066 8.27133 2.37533 8.70833 2.37533H11.0833V4.75033H9.05429C8.34733 4.75033 7.68233 5.06224 7.23029 5.60533L5.96283 7.12533H5.9375C4.84658 7.12533 3.95833 8.01358 3.95833 9.10449V10.292H1.58333V7.91699C1.58333 7.47999 1.22867 7.12533 0.791667 7.12533C0.354667 7.12533 0 7.47999 0 7.91699V14.2503C0 14.6873 0.354667 15.042 0.791667 15.042C1.22867 15.042 1.58333 14.6873 1.58333 14.2503V11.8753H3.95833V13.594C3.95833 14.2282 4.20533 14.8251 4.65421 15.274L6.10138 16.7211C6.54946 17.17 7.14638 17.417 7.78129 17.417H14.6458C15.6022 17.417 16.401 16.7362 16.5854 15.8337H17.0208C18.1117 15.8337 19 14.9454 19 13.8545V9.10449C19 8.01358 18.1117 7.12533 17.0208 7.12533ZM17.4167 13.8545C17.4167 14.073 17.2393 14.2503 17.0208 14.2503H15.8333C15.3963 14.2503 15.0417 14.605 15.0417 15.042V15.4378C15.0417 15.6563 14.8643 15.8337 14.6458 15.8337H7.78129C7.56992 15.8337 7.37042 15.7513 7.22079 15.6017L5.77363 14.1545C5.624 14.0049 5.54167 13.8062 5.54167 13.594V9.10449C5.54167 8.88599 5.719 8.70866 5.9375 8.70866H6.33333C6.56846 8.70866 6.79092 8.60416 6.94133 8.42366L8.44629 6.61866C8.59671 6.43737 8.81838 6.33366 9.05429 6.33366H14.6458C14.8643 6.33366 15.0417 6.51099 15.0417 6.72949V7.91699C15.0417 8.35399 15.3963 8.70866 15.8333 8.70866H17.0208C17.2393 8.70866 17.4167 8.88599 17.4167 9.10449V13.8545Z" fill="#D01818"/>
</g>
<defs>
<clipPath id="clip0_1825_9386">
<rect width="19" height="19" fill="white"/>
</clipPath>
</defs>
</svg>
