<svg width="24" height="24" viewBox="0 0 24 24" fill="none" xmlns="http://www.w3.org/2000/svg">
<path d="M13.7996 6.375C13.7996 6.06432 13.531 5.8125 13.1996 5.8125H7.19961C6.86822 5.8125 6.59961 6.06432 6.59961 6.375V10.875C6.59961 11.1857 6.86822 11.4375 7.19961 11.4375H13.1996C13.531 11.4375 13.7996 11.1857 13.7996 10.875V6.375ZM12.5996 10.3125H7.79961V6.9375H12.5996V10.3125Z" fill="#D01818"/>
<path d="M20.6827 6.98858L18.2898 5.86358C17.9928 5.72405 17.6366 5.8375 17.4883 6.11516C17.3401 6.39311 17.462 6.73096 17.7585 6.86993L18.6698 7.29669C18.6454 7.35786 18.6139 7.42255 18.6139 7.49177C18.6139 8.22415 19.2 8.84269 19.8 9.0756V15.9293C19.8 16.2394 19.5308 16.4918 19.2 16.4918C18.8693 16.4918 18.6 16.2394 18.6 15.9293V11.4293C18.6 10.0712 17.4 8.93497 16.2 8.67362V5.24177C16.2 4.00114 15.152 3 13.8287 3H6.62865C5.30531 3 4.2 4.00114 4.2 5.24177V17.8315L3.33165 18.2386C3.12833 18.3339 3 18.5286 3 18.7418V20.4293C3 20.7399 3.2973 21 3.62865 21H16.8287C17.16 21 17.4 20.7399 17.4 20.4293V18.7418C17.4 18.5286 17.2717 18.3339 17.0684 18.2386L16.2 17.8315V9.84545C16.8 10.0784 17.4 10.6969 17.4 11.4293V15.9293C17.4 16.8598 18.2074 17.6168 19.2 17.6168C20.1926 17.6168 21 16.8598 21 15.9293V7.49177C21 7.27862 20.886 7.08389 20.6827 6.98858ZM16.2 19.875H4.2V19.0895L5.06835 18.6824C5.27168 18.5871 5.4 18.3924 5.4 18.1792V5.24174C5.4 4.6213 5.96681 4.125 6.62865 4.125H13.8287C14.4905 4.125 15 4.6213 15 5.24177V18.1793C15 18.3924 15.1283 18.5872 15.3317 18.6825L16.2 19.0895V19.875Z" fill="#D01818"/>
</svg>
