<svg width="24" height="24" viewBox="0 0 24 24" fill="none" xmlns="http://www.w3.org/2000/svg">
<path d="M19.9292 8.17816C19.8985 8.1344 19.8591 8.09681 19.8132 8.06754C19.7673 8.03827 19.7157 8.0179 19.6614 8.00759C19.6072 7.99728 19.5514 7.99725 19.4971 8.00748C19.4429 8.01771 19.3913 8.03801 19.3453 8.06722L16.819 9.66722C16.7613 9.70377 16.7141 9.75326 16.6814 9.81131C16.6487 9.86936 16.6316 9.93417 16.6316 10V17.2C16.6316 17.3061 16.5872 17.4078 16.5083 17.4828C16.4293 17.5579 16.3222 17.6 16.2105 17.6C16.0989 17.6 15.9918 17.5579 15.9128 17.4828C15.8338 17.4078 15.7895 17.3061 15.7895 17.2V14C15.7891 13.6818 15.6559 13.3768 15.4191 13.1518C15.1823 12.9269 14.8612 12.8003 14.5263 12.8H14.1053V4.4C14.1053 4.34746 14.0944 4.29544 14.0733 4.24689C14.0521 4.19835 14.0211 4.15424 13.982 4.11709C13.9429 4.07994 13.8965 4.05048 13.8454 4.03039C13.7943 4.0103 13.7395 3.99997 13.6842 4H4.42105C4.36575 3.99997 4.31099 4.0103 4.25989 4.03039C4.20879 4.05048 4.16236 4.07994 4.12326 4.11709C4.08415 4.15424 4.05314 4.19835 4.03199 4.24689C4.01084 4.29544 3.99997 4.34746 4 4.4V17.6H14.1053V13.6H14.5263C14.6379 13.6001 14.745 13.6423 14.8239 13.7173C14.9028 13.7923 14.9472 13.894 14.9474 14V17.2C14.9474 17.5183 15.0805 17.8235 15.3174 18.0485C15.5542 18.2736 15.8755 18.4 16.2105 18.4C16.5455 18.4 16.8668 18.2736 17.1037 18.0485C17.3406 17.8235 17.4737 17.5183 17.4737 17.2V11.2H18.7369C18.7922 11.2 18.8469 11.1897 18.898 11.1696C18.9491 11.1495 18.9956 11.1201 19.0347 11.0829C19.0738 11.0458 19.1048 11.0017 19.1259 10.9531C19.1471 10.9046 19.1579 10.8525 19.1579 10.8V9.2C19.1557 9.18436 19.1524 9.16887 19.1481 9.15362L19.8125 8.73282C19.8585 8.7037 19.898 8.66624 19.9288 8.6226C19.9596 8.57895 19.981 8.52997 19.9918 8.47846C20.0027 8.42695 20.0027 8.37391 19.992 8.32238C19.9812 8.27085 19.9599 8.22185 19.9292 8.17816ZM9.05264 16C8.60611 15.9995 8.17801 15.8308 7.86227 15.5308C7.54653 15.2309 7.36893 14.8242 7.36842 14.4C7.36842 13.6844 8.24916 12 9.05264 12C9.85611 12 10.7368 13.6844 10.7368 14.4C10.7363 14.8242 10.5587 15.2309 10.243 15.5308C9.92726 15.8308 9.49916 15.9995 9.05264 16ZM12.4211 10C12.4211 10.0525 12.4102 10.1046 12.3891 10.1531C12.3679 10.2017 12.3369 10.2458 12.2978 10.2829C12.2587 10.3201 12.2123 10.3495 12.1612 10.3696C12.1101 10.3897 12.0553 10.4 12 10.4H6.10527C6.04996 10.4 5.9952 10.3897 5.9441 10.3696C5.893 10.3495 5.84657 10.3201 5.80747 10.2829C5.76836 10.2458 5.73735 10.2017 5.7162 10.1531C5.69505 10.1046 5.68418 10.0525 5.68421 10V6C5.68418 5.94746 5.69505 5.89544 5.7162 5.84689C5.73735 5.79835 5.76836 5.75424 5.80747 5.71709C5.84657 5.67994 5.893 5.65048 5.9441 5.63039C5.9952 5.6103 6.04996 5.59997 6.10527 5.6H12C12.0553 5.59997 12.1101 5.6103 12.1612 5.63039C12.2123 5.65048 12.2587 5.67994 12.2978 5.71709C12.3369 5.75424 12.3679 5.79835 12.3891 5.84689C12.4102 5.89544 12.4211 5.94746 12.4211 6V10ZM18.3158 10.4H17.4737V10.214L18.3158 9.68066V10.4Z" fill="#D01818"/>
<path d="M4 19.6004C3.99997 19.6529 4.01084 19.705 4.03199 19.7535C4.05314 19.802 4.08415 19.8461 4.12326 19.8833C4.16236 19.9204 4.20879 19.9499 4.25989 19.97C4.31099 19.9901 4.36575 20.0004 4.42105 20.0004H13.6842C13.7395 20.0004 13.7943 19.9901 13.8454 19.97C13.8965 19.9499 13.9429 19.9204 13.982 19.8833C14.0211 19.8461 14.0521 19.802 14.0733 19.7535C14.0944 19.705 14.1053 19.6529 14.1053 19.6004V18.4004H4V19.6004Z" fill="#D01818"/>
<path d="M6.52539 9.60039H8.37036L9.09609 8.22149C9.14603 8.12659 9.23362 8.05443 9.33957 8.02088C9.44552 7.98733 9.56117 7.99514 9.66106 8.04259C9.76095 8.09004 9.83691 8.17324 9.87222 8.2739C9.90754 8.37455 9.89932 8.48441 9.84937 8.57931L9.31194 9.60039H11.578V6.40039H6.52539V9.60039Z" fill="#D01818"/>
<path d="M9.05304 12.8281C8.76435 13.0437 8.21094 13.9484 8.21094 14.4C8.21094 14.6122 8.29966 14.8157 8.45758 14.9657C8.61551 15.1157 8.8297 15.2 9.05304 15.2C9.27638 15.2 9.49058 15.1157 9.6485 14.9657C9.80643 14.8157 9.89515 14.6122 9.89515 14.4C9.89515 13.9484 9.34165 13.0437 9.05304 12.8281Z" fill="#D01818"/>
</svg>
