<svg width="19" height="19" viewBox="0 0 19 19" fill="none" xmlns="http://www.w3.org/2000/svg">
<g clip-path="url(#clip0_1825_9294)">
<path fill-rule="evenodd" clip-rule="evenodd" d="M9.14406 8.30233C9.20572 8.94274 8.36168 10.1341 7.99584 10.5202C7.26621 11.2887 6.59345 12.1299 5.47195 12.9963C4.66936 13.6161 4.46177 13.6921 3.49647 13.6782L3.46153 13.6765C3.09432 13.6765 2.72745 13.7634 2.39175 13.9376L1.88307 13.4107C1.81524 13.3405 1.7046 13.3405 1.63712 13.4107L0.820143 14.2562C0.752661 14.3268 0.752661 14.4414 0.820143 14.5116L1.32677 15.036C1.16355 15.3717 1.07617 15.7413 1.07123 16.1171L1.06986 16.154C1.06986 16.7877 1.30314 17.4221 1.77003 17.9053C2.23521 18.3871 2.84666 18.6287 3.4605 18.6298H3.46256C3.83285 18.6298 4.2028 18.5411 4.54056 18.3648L5.04684 18.8895C5.11467 18.9594 5.22531 18.9594 5.29314 18.8895L6.10977 18.0433C6.17759 17.9734 6.17759 17.8592 6.10977 17.7886L5.60109 17.2617C5.76928 16.914 5.8532 16.534 5.8532 16.1537C5.8532 15.1027 5.9039 14.8821 6.54515 14.0029C7.38234 12.8537 8.17191 12.1987 8.90017 11.4568C9.27217 11.0779 10.4231 10.2668 11.0411 10.2672L9.14406 8.30233ZM12.9398 0.889176C15.3497 2.26757 17.0374 3.99792 18.2754 6.41586C18.31 6.48221 18.3267 6.55636 18.2754 6.60958L17.6721 7.23438L12.1496 1.51398L12.7528 0.889176C12.8042 0.835957 12.8765 0.853342 12.9398 0.889176ZM13.3396 6.00182C13.777 6.45525 13.777 7.19003 13.3392 7.64347C12.9018 8.09654 12.1924 8.0969 11.7546 7.64347C11.3168 7.19003 11.3168 6.45489 11.7546 6.00182C12.1924 5.54838 12.9018 5.54838 13.3396 6.00182ZM17.2775 7.64347L16.9117 8.02204L11.3888 2.30198L11.7546 1.92306L17.2775 7.64347ZM16.5167 8.43112L13.0186 12.0547C12.9683 12.1065 12.8823 12.1065 12.8316 12.0543L11.9944 11.1868L12.1907 10.9832C12.6507 10.5067 12.1972 10.3502 11.7389 9.87515L9.60033 7.66014C9.14166 7.18542 8.98854 6.71709 8.53021 7.19181L8.33359 7.39546L7.49572 6.52798C7.44536 6.47547 7.44434 6.38748 7.49572 6.33426L10.9938 2.71071L16.5167 8.43112ZM4.38538 16.1515C4.38538 16.6724 3.97775 17.0949 3.47455 17.0949C2.97169 17.0949 2.56406 16.6724 2.56406 16.1515C2.56406 15.6303 2.97169 15.2081 3.47455 15.2081C3.97775 15.2081 4.38538 15.6303 4.38538 16.1515Z" fill="#D01818"/>
</g>
<defs>
<clipPath id="clip0_1825_9294">
<rect width="17.5385" height="18.0865" fill="white" transform="translate(0.769531 0.855469)"/>
</clipPath>
</defs>
</svg>
