<svg width="24" height="24" viewBox="0 0 24 24" fill="none" xmlns="http://www.w3.org/2000/svg">
<path d="M19.5 19H4.5C4.10218 19 3.72064 19.158 3.43934 19.4393C3.15804 19.7206 3 20.1022 3 20.5C3 21.163 3.26339 21.7989 3.73223 22.2678C4.20107 22.7366 4.83696 23 5.5 23H18.5C19.163 23 19.7989 22.7366 20.2678 22.2678C20.7366 21.7989 21 21.163 21 20.5C21 20.1022 20.842 19.7206 20.5607 19.4393C20.2794 19.158 19.8978 19 19.5 19Z" fill="#D01818"/>
<path d="M7.74562 9.9663C7.7529 9.4414 7.96688 8.94055 8.34113 8.57243C8.71538 8.20431 9.21969 7.99862 9.74464 8H14.2545C14.7848 8.0006 15.2931 8.21151 15.6681 8.58645C16.043 8.96139 16.2539 9.46975 16.2545 10L16.7755 18H18.9737L18.4995 9C18.4986 8.20462 18.1823 7.44206 17.6199 6.87964C17.0575 6.31722 16.2949 6.00087 15.4995 6H14.9995V5H15.9995C16.2647 4.99974 16.5189 4.89429 16.7063 4.70681C16.8938 4.51934 16.9993 4.26514 16.9995 4V3C16.9989 2.46975 16.788 1.96139 16.4131 1.58645C16.0381 1.21151 15.5298 1.0006 14.9995 1H8.99952C8.46927 1.0006 7.96091 1.21151 7.58597 1.58645C7.21102 1.96139 7.00012 2.46975 6.99952 3V4C6.99978 4.26514 7.10522 4.51934 7.2927 4.70681C7.48018 4.89429 7.73438 4.99974 7.99952 5H8.99952V6H8.49952C7.70829 5.99926 6.94889 6.31151 6.38704 6.86861C5.82518 7.42571 5.50648 8.18242 5.50049 8.97363L5.02539 18H7.19934L7.74562 9.9663ZM9.99952 5H13.9995V6H9.99952V5Z" fill="#D01818"/>
<path d="M14.2559 9H9.74605C9.48091 9.00026 9.22671 9.1057 9.03923 9.29318C8.85175 9.48066 8.74631 9.73486 8.74605 10L8.20312 18H15.7747L15.2568 10.0322C15.2598 9.89849 15.2361 9.7655 15.1873 9.64097C15.1384 9.51644 15.0653 9.40287 14.9722 9.30683C14.8791 9.21079 14.7678 9.13422 14.6448 9.08154C14.5219 9.02887 14.3897 9.00115 14.2559 9Z" fill="#D01818"/>
</svg>
