<svg width="19" height="19" viewBox="0 0 19 19" fill="none" xmlns="http://www.w3.org/2000/svg">
<g clip-path="url(#clip0_1825_9402)">
<path d="M9.5 0C6.98044 0 4.56408 1.00089 2.78249 2.78249C1.00089 4.56408 0 6.98044 0 9.5C0.467083 22.0915 18.5377 22.0796 19 9.5C19 6.98044 17.9991 4.56408 16.2175 2.78249C14.4359 1.00089 12.0196 0 9.5 0ZM9.5 1.58333C10.9506 1.58439 12.373 1.98357 13.6124 2.73739C14.8517 3.49121 15.8604 4.57074 16.5284 5.85833L10.948 6.97458C9.95511 7.17418 8.93247 7.17418 7.93963 6.97458L2.4605 5.8805C3.1264 4.5871 4.13549 3.50195 5.37718 2.74398C6.61887 1.98601 8.04524 1.58446 9.5 1.58333ZM7.125 17.0525C5.66636 16.591 4.37216 15.7178 3.39814 14.538C2.42411 13.3583 1.81177 11.9221 1.63479 10.4025L4.72229 11.02C5.06439 11.0882 5.38723 11.231 5.66777 11.4383C5.9483 11.6457 6.17962 11.9124 6.34521 12.2194L6.83921 13.1322C7.02668 13.4789 7.1249 13.8669 7.125 14.2611V17.0525ZM11.875 17.0525V14.2611C11.8751 13.8663 11.9736 13.4777 12.1616 13.1306L12.6556 12.217C12.8215 11.9103 13.053 11.644 13.3334 11.4368C13.6139 11.2297 13.9366 11.0868 14.2785 11.0184L17.366 10.4009C17.1892 11.9209 16.5769 13.3575 15.6027 14.5376C14.6285 15.7177 13.334 16.591 11.875 17.0525ZM13.9682 9.46596C13.3982 9.57924 12.8604 9.81693 12.3929 10.1621C11.9254 10.5072 11.5399 10.9512 11.2638 11.4625L10.7667 12.3761C10.4544 12.9553 10.2912 13.6031 10.2917 14.2611V17.3771C9.76518 17.4293 9.23482 17.4293 8.70833 17.3771V14.2611C8.70884 13.6031 8.5456 12.9553 8.23333 12.3761L7.73617 11.4633C7.46028 10.9518 7.07482 10.5075 6.60733 10.1623C6.13984 9.81699 5.60186 9.57922 5.03183 9.46596L1.61658 8.78275C1.65878 8.30747 1.74464 7.83708 1.87308 7.37754L7.63008 8.52863C8.82751 8.7693 10.0609 8.7693 11.2583 8.52863L17.1214 7.35617C17.2528 7.822 17.3405 8.29906 17.3834 8.78117L13.9682 9.46596Z" fill="#D01818"/>
</g>
<defs>
<clipPath id="clip0_1825_9402">
<rect width="19" height="19" fill="white"/>
</clipPath>
</defs>
</svg>
