<svg xmlns="http://www.w3.org/2000/svg" version="1.1" xmlns:xlink="http://www.w3.org/1999/xlink" width="512" height="512" x="0" y="0" viewBox="0 0 24 24" style="enable-background:new 0 0 512 512" xml:space="preserve" class=""><g><g data-name="Layer 2"><path d="M20 6.25h-.76a1.23 1.23 0 0 1-1.12-.69l-.9-1.79a2.73 2.73 0 0 0-2.46-1.52H9.24a2.73 2.73 0 0 0-2.46 1.52l-.9 1.79a1.23 1.23 0 0 1-1.12.69H4A2.75 2.75 0 0 0 1.25 9v10A2.75 2.75 0 0 0 4 21.75h16A2.75 2.75 0 0 0 22.75 19V9A2.75 2.75 0 0 0 20 6.25zm-8 12A5.25 5.25 0 1 1 17.25 13 5.26 5.26 0 0 1 12 18.25z" fill="#ffffff" opacity="1" data-original="#000000" class=""></path><circle cx="12" cy="13" r="3.75" fill="#ffffff" opacity="1" data-original="#000000" class=""></circle></g></g></svg>