<svg width="56" height="66" viewBox="0 0 56 66" fill="none" xmlns="http://www.w3.org/2000/svg">
<g clip-path="url(#clip0_1805_4076)">
<path d="M47.6156 59.5548H7.62593C5.68745 59.5548 3.82837 58.803 2.45766 57.4648C1.08695 56.1267 0.316895 54.3117 0.316895 52.4192V13.3787C0.316895 11.4863 1.08695 9.6713 2.45766 8.33312C3.82837 6.99494 5.68745 6.24316 7.62593 6.24316H47.6156C49.554 6.24316 51.4131 6.99494 52.7838 8.33312C54.1545 9.6713 54.9246 11.4863 54.9246 13.3787V52.4192C54.9246 54.3117 54.1545 56.1267 52.7838 57.4648C51.4131 58.803 49.554 59.5548 47.6156 59.5548ZM7.62593 10.3441C6.80152 10.3441 6.01087 10.6638 5.42793 11.2329C4.84498 11.802 4.51749 12.5739 4.51749 13.3787V52.4192C4.51749 53.2241 4.84498 53.996 5.42793 54.5651C6.01087 55.1342 6.80152 55.4539 7.62593 55.4539H47.6156C48.44 55.4539 49.2306 55.1342 49.8136 54.5651C50.3965 53.996 50.724 53.2241 50.724 52.4192V13.3787C50.724 12.5739 50.3965 11.802 49.8136 11.2329C49.2306 10.6638 48.44 10.3441 47.6156 10.3441H7.62593Z" fill="white"/>
<path d="M2.41786 51.5173C2.11533 51.5164 1.81648 51.4525 1.54123 51.3299C1.26599 51.2074 1.02067 51.0289 0.821637 50.8065C0.642497 50.6004 0.506864 50.3618 0.422539 50.1043C0.338213 49.8469 0.30686 49.5757 0.330284 49.3063C0.353707 49.037 0.431445 48.7749 0.559024 48.535C0.686603 48.2951 0.861506 48.0822 1.07367 47.9085L15.4117 36.098C16.4822 35.2159 17.8524 34.7575 19.2521 34.8131C20.6518 34.8688 21.9793 35.4345 22.9728 36.3987L29.7777 43.0421C30.0313 43.2539 30.3541 43.3703 30.6879 43.3703C31.0216 43.3703 31.3444 43.2539 31.598 43.0421L38.2069 38.3671C39.1863 37.6311 40.3875 37.232 41.6234 37.232C42.8593 37.232 44.0605 37.6311 45.0399 38.3671L54.1412 45.448C54.3581 45.6167 54.539 45.8255 54.6733 46.0625C54.8076 46.2995 54.8928 46.5599 54.924 46.829C54.9552 47.0981 54.9318 47.3706 54.8551 47.6309C54.7785 47.8911 54.6501 48.1341 54.4772 48.346C54.3044 48.5578 54.0905 48.7343 53.8478 48.8654C53.605 48.9965 53.3382 49.0797 53.0626 49.1102C52.787 49.1406 52.5079 49.1178 52.2413 49.043C51.9747 48.9681 51.7258 48.8428 51.5088 48.674L42.4355 41.5658C42.1907 41.3818 41.8904 41.282 41.5814 41.282C41.2724 41.282 40.9721 41.3818 40.7273 41.5658L34.1183 46.5689C33.0426 47.3575 31.712 47.7417 30.37 47.6514C29.0279 47.561 27.764 47.0021 26.8093 46.0768L20.0043 39.2966C19.7471 39.07 19.4128 38.9445 19.0662 38.9445C18.7196 38.9445 18.3854 39.07 18.1281 39.2966L3.76205 51.0525C3.38694 51.3621 2.90896 51.5274 2.41786 51.5173Z" fill="white"/>
<path d="M36.0219 32.2153C34.4988 32.2153 33.0098 31.7744 31.7434 30.9483C30.477 30.1221 29.4899 28.9479 28.907 27.5742C28.3241 26.2004 28.1716 24.6887 28.4688 23.2303C28.7659 21.7719 29.4994 20.4322 30.5764 19.3808C31.6534 18.3293 33.0256 17.6133 34.5195 17.3232C36.0134 17.0331 37.5618 17.182 38.969 17.751C40.3762 18.3201 41.5789 19.2837 42.4251 20.5201C43.2713 21.7565 43.723 23.21 43.723 24.697C43.723 26.691 42.9116 28.6033 41.4674 30.0133C40.0232 31.4232 38.0644 32.2153 36.0219 32.2153ZM36.0219 21.2796C35.3296 21.2796 34.6528 21.48 34.0771 21.8555C33.5015 22.2311 33.0528 22.7648 32.7879 23.3892C32.5229 24.0137 32.4536 24.7008 32.5887 25.3637C32.7237 26.0266 33.0571 26.6356 33.5467 27.1135C34.0362 27.5914 34.66 27.9169 35.339 28.0488C36.018 28.1806 36.7218 28.113 37.3615 27.8543C38.0011 27.5956 38.5478 27.1576 38.9325 26.5956C39.3171 26.0336 39.5224 25.3729 39.5224 24.697C39.5224 23.7907 39.1536 22.9214 38.4971 22.2805C37.8406 21.6397 36.9503 21.2796 36.0219 21.2796Z" fill="white"/>
</g>
<defs>
<clipPath id="clip0_1805_4076">
<rect width="54.8016" height="65.6143" fill="white" transform="translate(0.219238 0.0917969)"/>
</clipPath>
</defs>
</svg>
