<svg width="19" height="19" viewBox="0 0 19 19" fill="none" xmlns="http://www.w3.org/2000/svg">
<g clip-path="url(#clip0_1820_4418)">
<path d="M11.2812 3.5625C11.2812 3.23456 11.0154 2.96875 10.6875 2.96875H4.75C4.42206 2.96875 4.15625 3.23456 4.15625 3.5625V8.3125C4.15625 8.64044 4.42206 8.90625 4.75 8.90625H10.6875C11.0154 8.90625 11.2812 8.64044 11.2812 8.3125V3.5625ZM10.0938 7.71875H5.34375V4.15625H10.0938V7.71875Z" fill="black"/>
<path d="M18.0922 4.21017L15.7243 3.02267C15.4303 2.87538 15.0779 2.99513 14.9312 3.28822C14.7845 3.58161 14.9051 3.93823 15.1985 4.08493L16.1003 4.5354C16.0762 4.59997 16.045 4.66825 16.045 4.74132C16.045 5.51438 16.625 6.16728 17.2188 6.41313V13.6476C17.2188 13.9749 16.9523 14.2413 16.625 14.2413C16.2977 14.2413 16.0312 13.9749 16.0312 13.6476V8.89757C16.0312 7.46399 14.8438 6.26469 13.6562 5.98882V2.36632C13.6562 1.05676 12.6192 0 11.3096 0H4.1846C2.87505 0 1.78125 1.05676 1.78125 2.36632V15.6555L0.921945 16.0852C0.720738 16.1858 0.59375 16.3913 0.59375 16.6163V18.3976C0.59375 18.7255 0.887953 19 1.21585 19H14.2784C14.6063 19 14.8438 18.7255 14.8438 18.3976V16.6163C14.8438 16.3913 14.7168 16.1858 14.5156 16.0852L13.6562 15.6555V7.22575C14.25 7.4716 14.8438 8.1245 14.8438 8.89757V13.6476C14.8438 14.6298 15.6428 15.4288 16.625 15.4288C17.6072 15.4288 18.4062 14.6298 18.4062 13.6476V4.74132C18.4062 4.51632 18.2934 4.31077 18.0922 4.21017ZM13.6562 17.8125H1.78125V16.9833L2.64055 16.5537C2.84176 16.4531 2.96875 16.2475 2.96875 16.0225V2.36628C2.96875 1.71137 3.52966 1.1875 4.1846 1.1875H11.3096C11.9645 1.1875 12.4688 1.71137 12.4688 2.36632V16.0226C12.4688 16.2476 12.5957 16.4531 12.7969 16.5537L13.6562 16.9833V17.8125Z" fill="black"/>
</g>
<defs>
<clipPath id="clip0_1820_4418">
<rect width="19" height="19" fill="white"/>
</clipPath>
</defs>
</svg>
