<svg width="21" height="21" viewBox="0 0 21 21" fill="none" xmlns="http://www.w3.org/2000/svg">
<path fill-rule="evenodd" clip-rule="evenodd" d="M3.48693 1.91504C2.16374 1.91504 1.08984 2.96344 1.08984 4.25523C1.08984 5.54702 2.16374 6.59542 3.48693 6.59542C4.81012 6.59542 5.88401 5.54702 5.88401 4.25523C5.88401 2.96344 4.81012 1.91504 3.48693 1.91504ZM3.48693 3.19151C4.08838 3.19151 4.57651 3.66806 4.57651 4.25523C4.57651 4.84241 4.08838 5.31895 3.48693 5.31895C2.88548 5.31895 2.39734 4.84241 2.39734 4.25523C2.39734 3.66806 2.88548 3.19151 3.48693 3.19151Z" fill="black"/>
<path fill-rule="evenodd" clip-rule="evenodd" d="M3.48693 13.8291C2.16374 13.8291 1.08984 14.8775 1.08984 16.1693C1.08984 17.4611 2.16374 18.5095 3.48693 18.5095C4.81012 18.5095 5.88401 17.4611 5.88401 16.1693C5.88401 14.8775 4.81012 13.8291 3.48693 13.8291ZM3.48693 15.1056C4.08838 15.1056 4.57651 15.5821 4.57651 16.1693C4.57651 16.7565 4.08838 17.233 3.48693 17.233C2.88548 17.233 2.39734 16.7565 2.39734 16.1693C2.39734 15.5821 2.88548 15.1056 3.48693 15.1056Z" fill="black"/>
<path fill-rule="evenodd" clip-rule="evenodd" d="M10.4615 1.91504C9.13835 1.91504 8.06445 2.96344 8.06445 4.25523C8.06445 5.54702 9.13835 6.59542 10.4615 6.59542C11.7847 6.59542 12.8586 5.54702 12.8586 4.25523C12.8586 2.96344 11.7847 1.91504 10.4615 1.91504ZM10.4615 3.19151C11.063 3.19151 11.5511 3.66806 11.5511 4.25523C11.5511 4.84241 11.063 5.31895 10.4615 5.31895C9.86009 5.31895 9.37195 4.84241 9.37195 4.25523C9.37195 3.66806 9.86009 3.19151 10.4615 3.19151Z" fill="black"/>
<path fill-rule="evenodd" clip-rule="evenodd" d="M10.4615 13.8291C9.13835 13.8291 8.06445 14.8775 8.06445 16.1693C8.06445 17.4611 9.13835 18.5095 10.4615 18.5095C11.7847 18.5095 12.8586 17.4611 12.8586 16.1693C12.8586 14.8775 11.7847 13.8291 10.4615 13.8291ZM10.4615 15.1056C11.063 15.1056 11.5511 15.5821 11.5511 16.1693C11.5511 16.7565 11.063 17.233 10.4615 17.233C9.86009 17.233 9.37195 16.7565 9.37195 16.1693C9.37195 15.5821 9.86009 15.1056 10.4615 15.1056Z" fill="black"/>
<path fill-rule="evenodd" clip-rule="evenodd" d="M17.4322 1.91504C16.1091 1.91504 15.0352 2.96344 15.0352 4.25523C15.0352 5.54702 16.1091 6.59542 17.4322 6.59542C18.7554 6.59542 19.8293 5.54702 19.8293 4.25523C19.8293 2.96344 18.7554 1.91504 17.4322 1.91504ZM17.4322 3.19151C18.0337 3.19151 18.5218 3.66806 18.5218 4.25523C18.5218 4.84241 18.0337 5.31895 17.4322 5.31895C16.8308 5.31895 16.3427 4.84241 16.3427 4.25523C16.3427 3.66806 16.8308 3.19151 17.4322 3.19151Z" fill="black"/>
<path fill-rule="evenodd" clip-rule="evenodd" d="M17.4322 13.8291C16.1091 13.8291 15.0352 14.8775 15.0352 16.1693C15.0352 17.4611 16.1091 18.5095 17.4322 18.5095C18.7554 18.5095 19.8293 17.4611 19.8293 16.1693C19.8293 14.8775 18.7554 13.8291 17.4322 13.8291ZM17.4322 15.1056C18.0337 15.1056 18.5218 15.5821 18.5218 16.1693C18.5218 16.7565 18.0337 17.233 17.4322 17.233C16.8308 17.233 16.3427 16.7565 16.3427 16.1693C16.3427 15.5821 16.8308 15.1056 17.4322 15.1056Z" fill="black"/>
<path fill-rule="evenodd" clip-rule="evenodd" d="M2.83398 5.95757V14.4673C2.83398 14.8197 3.12686 15.1056 3.48773 15.1056C3.8486 15.1056 4.14148 14.8197 4.14148 14.4673V5.95757C4.14148 5.60526 3.8486 5.31934 3.48773 5.31934C3.12686 5.31934 2.83398 5.60526 2.83398 5.95757Z" fill="black"/>
<path fill-rule="evenodd" clip-rule="evenodd" d="M9.80664 5.95757V14.4673C9.80664 14.8197 10.0995 15.1056 10.4604 15.1056C10.8213 15.1056 11.1141 14.8197 11.1141 14.4673V5.95757C11.1141 5.60526 10.8213 5.31934 10.4604 5.31934C10.0995 5.31934 9.80664 5.60526 9.80664 5.95757Z" fill="black"/>
<path fill-rule="evenodd" clip-rule="evenodd" d="M16.7807 5.95757V9.36148C16.7807 9.47892 16.683 9.57422 16.5627 9.57422H3.48773C3.12686 9.57422 2.83398 9.86015 2.83398 10.2125C2.83398 10.5648 3.12686 10.8507 3.48773 10.8507H16.5627C17.4056 10.8507 18.0882 10.1835 18.0882 9.36148C18.0882 8.1199 18.0882 5.95757 18.0882 5.95757C18.0882 5.60526 17.7953 5.31934 17.4344 5.31934C17.0735 5.31934 16.7807 5.60526 16.7807 5.95757Z" fill="black"/>
</svg>
